<svg width="72" height="72" viewBox="0 0 72 72" fill="none" xmlns="http://www.w3.org/2000/svg">
<path d="M63 33V27H57V21C56.9953 19.4102 56.3616 17.8868 55.2374 16.7626C54.1132 15.6384 52.5898 15.0047 51 15H45V9H39V15H33V9H27V15H21C19.4102 15.0047 17.8868 15.6384 16.7626 16.7626C15.6384 17.8868 15.0047 19.4102 15 21V27H9V33H15V39H9V45H15V51C15.0047 52.5898 15.6384 54.1132 16.7626 55.2374C17.8868 56.3616 19.4102 56.9953 21 57H27V63H33V57H39V63H45V57H51C52.5898 56.9953 54.1132 56.3616 55.2374 55.2374C56.3616 54.1132 56.9953 52.5898 57 51V45H63V39H57V33H63ZM51 51H21V21H51V51Z" fill="#FFD60C"/>
<path d="M34.0829 24H30.0479L24.0179 48H27.0989L28.4909 42.375H35.4389L36.7949 48H39.9809L34.0829 24ZM28.8959 39.972L31.9499 26.85H32.0879L35.0369 39.972H28.8959ZM42.7319 24H45.7319V48H42.7319V24Z" fill="#FFD60C"/>
</svg>
