<svg width="57" height="57" viewBox="0 0 57 57" fill="none" xmlns="http://www.w3.org/2000/svg">
<path fill-rule="evenodd" clip-rule="evenodd" d="M11.2266 6.441C11.9534 5.73087 12.9699 5.26775 14.8936 5.016C16.8744 4.75475 19.4964 4.75 23.2584 4.75H33.7416C37.5036 4.75 40.1256 4.75475 42.1064 5.016C44.0301 5.26775 45.0466 5.73087 45.7734 6.441C46.4977 7.1535 46.9704 8.151 47.2292 10.0344C47.4952 11.9747 47.5 14.5445 47.5 18.2281V36.8457H17.4467C15.3021 36.8457 13.8391 36.8434 12.5851 37.1735C11.4641 37.468 10.4239 37.9478 9.5 38.5795V18.2305C9.5 14.5445 9.50475 11.9747 9.77075 10.0344C10.0296 8.151 10.5023 7.1535 11.2266 6.441ZM18.0191 13.737C17.5034 13.7319 17.0068 13.9316 16.6381 14.2923C16.2694 14.6529 16.0589 15.1451 16.0526 15.6607C16.0526 16.7247 16.9314 17.5869 18.0167 17.5869H38.9832C39.4985 17.5913 39.9946 17.3913 40.3627 17.0308C40.7309 16.6702 40.9411 16.1784 40.9474 15.6631C40.9417 15.1474 40.7318 14.655 40.3636 14.294C39.9953 13.9329 39.4989 13.7326 38.9832 13.737H18.0191ZM16.0526 24.6478C16.0526 23.5861 16.9314 22.724 18.0167 22.724H31.1196C31.6353 22.7189 32.132 22.9186 32.5006 23.2793C32.8693 23.6399 33.0799 24.1321 33.0861 24.6478C33.0805 25.1639 32.8702 25.6566 32.5015 26.0178C32.1327 26.3789 31.6357 26.5789 31.1196 26.5739H18.0167C17.5015 26.5783 17.0054 26.3783 16.6373 26.0178C16.2691 25.6572 16.0589 25.163 16.0526 24.6478Z" fill="#113775"/>
<path d="M17.7484 40.6957C15.1858 40.6957 14.2904 40.7123 13.6017 40.8928C12.6844 41.1299 11.8383 41.5862 11.1363 42.2225C10.4343 42.8587 9.89721 43.6559 9.57129 44.5456C9.60929 45.4528 9.67341 46.2532 9.77079 46.9657C10.0297 48.8491 10.5023 49.8466 11.2267 50.5591C11.9534 51.2692 12.9699 51.7323 14.8937 51.9841C16.8744 52.2453 19.4964 52.2501 23.2584 52.2501H33.7417C37.5037 52.2501 40.1257 52.2453 42.1064 51.9864C44.0302 51.7323 45.0467 51.2692 45.7734 50.5591C46.2864 50.0532 46.6759 49.4048 46.949 48.3978H18.0168C17.5015 48.4022 17.0054 48.2023 16.6373 47.8417C16.2692 47.4811 16.0589 46.9893 16.0527 46.4741C16.0527 45.4101 16.9314 44.5479 18.0168 44.5479H47.4288C47.4763 43.4412 47.4929 42.1729 47.5 40.6957H17.7484Z" fill="#113775"/>
</svg>
