<svg width="70" height="70" viewBox="0 0 70 70" fill="none" xmlns="http://www.w3.org/2000/svg">
<path d="M59.0625 52.5C58.0881 52.5045 57.1272 52.7288 56.2516 53.1563L46.8453 43.75H39.375V48.125H45.0319L53.1584 56.2516C52.7306 57.1272 52.5056 58.088 52.5 59.0625C52.5 60.3604 52.8849 61.6292 53.606 62.7084C54.3271 63.7876 55.352 64.6288 56.5511 65.1255C57.7503 65.6222 59.0698 65.7521 60.3428 65.4989C61.6158 65.2457 62.7851 64.6207 63.7029 63.7029C64.6207 62.7851 65.2457 61.6158 65.4989 60.3428C65.7521 59.0698 65.6222 57.7503 65.1255 56.5511C64.6288 55.352 63.7876 54.3271 62.7084 53.606C61.6292 52.8849 60.3604 52.5 59.0625 52.5ZM59.0625 61.25C58.6299 61.25 58.2069 61.1217 57.8472 60.8813C57.4875 60.641 57.2071 60.2993 57.0415 59.8996C56.8759 59.4999 56.8326 59.0601 56.917 58.6357C57.0014 58.2114 57.2098 57.8216 57.5157 57.5157C57.8216 57.2098 58.2114 57.0014 58.6357 56.917C59.0601 56.8326 59.4999 56.8759 59.8996 57.0415C60.2993 57.2071 60.641 57.4875 60.8813 57.8472C61.1217 58.2069 61.25 58.6299 61.25 59.0625C61.25 59.6427 61.0195 60.1991 60.6093 60.6093C60.1991 61.0195 59.6427 61.25 59.0625 61.25ZM59.0625 28.4375C57.7097 28.4415 56.3913 28.8642 55.2883 29.6476C54.1853 30.4309 53.3519 31.5365 52.9025 32.8125H39.375V37.1875H52.9025C53.3055 38.3188 54.0117 39.3176 54.9439 40.0747C55.8762 40.8318 56.9986 41.3181 58.1885 41.4805C59.3784 41.6428 60.5901 41.475 61.6911 40.9953C62.7921 40.5156 63.74 39.7425 64.4314 38.7605C65.1227 37.7785 65.5308 36.6253 65.6111 35.4271C65.6914 34.2288 65.4408 33.0315 64.8866 31.9661C64.3325 30.9006 63.4962 30.008 62.469 29.3857C61.4419 28.7634 60.2634 28.4354 59.0625 28.4375ZM59.0625 37.1875C58.6299 37.1875 58.2069 37.0592 57.8472 36.8188C57.4875 36.5785 57.2071 36.2368 57.0415 35.8371C56.8759 35.4374 56.8326 34.9976 56.917 34.5732C57.0014 34.1489 57.2098 33.7591 57.5157 33.4532C57.8216 33.1473 58.2114 32.9389 58.6357 32.8545C59.0601 32.7701 59.4999 32.8134 59.8996 32.979C60.2993 33.1446 60.641 33.425 60.8813 33.7847C61.1217 34.1444 61.25 34.5674 61.25 35C61.25 35.5802 61.0195 36.1366 60.6093 36.5468C60.1991 36.957 59.6427 37.1875 59.0625 37.1875ZM59.0625 4.375C57.3225 4.37674 55.6544 5.0687 54.424 6.29903C53.1937 7.52936 52.5017 9.19755 52.5 10.9375C52.5075 11.9854 52.7687 13.016 53.2612 13.9409L45.0538 21.875H39.375V26.25H46.8212L56.4463 16.9488C57.3403 17.3386 58.3101 17.5242 59.285 17.4921C60.2599 17.4599 61.2153 17.2107 62.0817 16.7627C62.9482 16.3147 63.7038 15.6791 64.2936 14.9022C64.8834 14.1253 65.2926 13.2267 65.4913 12.2717C65.69 11.3168 65.6732 10.3295 65.4422 9.38184C65.2113 8.43418 64.7719 7.54994 64.1561 6.79351C63.5402 6.03707 62.7635 5.42748 61.8824 5.00911C61.0012 4.59073 60.0379 4.37411 59.0625 4.375ZM59.0625 13.125C58.6299 13.125 58.2069 12.9967 57.8472 12.7563C57.4875 12.516 57.2071 12.1743 57.0415 11.7746C56.8759 11.3749 56.8326 10.9351 56.917 10.5107C57.0014 10.0864 57.2098 9.69663 57.5157 9.39071C57.8216 9.08478 58.2114 8.87644 58.6357 8.79203C59.0601 8.70763 59.4999 8.75095 59.8996 8.91652C60.2993 9.08208 60.641 9.36246 60.8813 9.72219C61.1217 10.0819 61.25 10.5049 61.25 10.9375C61.25 11.5177 61.0195 12.0741 60.6093 12.4843C60.1991 12.8945 59.6427 13.125 59.0625 13.125Z" fill="#AD9105"/>
<path d="M39.375 13.125H43.75V8.75H39.375C38.1284 8.75416 36.8972 9.02626 35.765 9.54786C34.6327 10.0694 33.6258 10.8283 32.8125 11.7731C31.9992 10.8283 30.9923 10.0694 29.86 9.54786C28.7278 9.02626 27.4966 8.75416 26.25 8.75H24.0625C18.8428 8.75579 13.8386 10.8319 10.1477 14.5227C6.45686 18.2136 4.38079 23.2178 4.375 28.4375V41.5625C4.38079 46.7822 6.45686 51.7864 10.1477 55.4773C13.8386 59.1681 18.8428 61.2442 24.0625 61.25H26.25C27.4966 61.2458 28.7278 60.9737 29.86 60.4521C30.9923 59.9305 31.9992 59.1716 32.8125 58.2269C33.6258 59.1716 34.6327 59.9305 35.765 60.4521C36.8972 60.9737 38.1284 61.2458 39.375 61.25H43.75V56.875H39.375C38.215 56.8738 37.1029 56.4125 36.2827 55.5923C35.4625 54.7721 35.0012 53.66 35 52.5V17.5C35.0012 16.34 35.4625 15.2279 36.2827 14.4077C37.1029 13.5875 38.215 13.1262 39.375 13.125ZM26.25 56.875H24.0625C20.3841 56.8684 16.8308 55.5388 14.0516 53.1291C11.2724 50.7194 9.45273 47.3904 8.925 43.75H13.125V39.375H8.75V30.625H15.3125C17.0525 30.6233 18.7206 29.9313 19.951 28.701C21.1813 27.4706 21.8733 25.8025 21.875 24.0625V19.6875H17.5V24.0625C17.5 24.6427 17.2695 25.1991 16.8593 25.6093C16.4491 26.0195 15.8927 26.25 15.3125 26.25H8.925C9.45273 22.6096 11.2724 19.2806 14.0516 16.8709C16.8308 14.4611 20.3841 13.1316 24.0625 13.125H26.25C27.41 13.1262 28.5221 13.5875 29.3423 14.4077C30.1625 15.2279 30.6238 16.34 30.625 17.5V26.25H26.25V30.625H30.625V39.375H26.25C24.51 39.3767 22.8419 40.0687 21.6115 41.299C20.3812 42.5294 19.6892 44.1976 19.6875 45.9375V50.3125H24.0625V45.9375C24.0625 45.3573 24.293 44.8009 24.7032 44.3907C25.1134 43.9805 25.6698 43.75 26.25 43.75H30.625V52.5C30.6238 53.66 30.1625 54.7721 29.3423 55.5923C28.5221 56.4125 27.41 56.8738 26.25 56.875Z" fill="#AD9105"/>
</svg>
