<svg width="56" height="56" viewBox="0 0 56 56" fill="none" xmlns="http://www.w3.org/2000/svg">
<g clip-path="url(#clip0_118_3100)">
<path d="M37.3333 44.8H48.5333V41.0667H37.3333V44.8Z" fill="#AD9105"/>
<path fill-rule="evenodd" clip-rule="evenodd" d="M35.4667 0C33.9815 0 32.5571 0.589998 31.5069 1.6402C30.4567 2.69041 29.8667 4.11479 29.8667 5.6V11.2H5.6C4.11479 11.2 2.69041 11.79 1.6402 12.8402C0.589998 13.8904 0 15.3148 0 16.8L0 39.2C0 40.6852 0.589998 42.1096 1.6402 43.1598C2.69041 44.21 4.11479 44.8 5.6 44.8H22.4V52.2667H14.9333V56H50.4C51.8852 56 53.3096 55.41 54.3598 54.3598C55.41 53.3096 56 51.8852 56 50.4V5.6C56 4.11479 55.41 2.69041 54.3598 1.6402C53.3096 0.589998 51.8852 0 50.4 0L35.4667 0ZM30.184 52.2667H26.1333V44.8H29.8667V50.4C29.8667 51.0533 29.9787 51.6843 30.184 52.2667ZM35.4667 52.2667H50.4C50.8951 52.2667 51.3699 52.07 51.7199 51.7199C52.07 51.3699 52.2667 50.8951 52.2667 50.4V22.4H33.6V50.4C33.6 50.8951 33.7967 51.3699 34.1467 51.7199C34.4968 52.07 34.9716 52.2667 35.4667 52.2667ZM33.6 18.6667H52.2667V5.6C52.2667 5.10493 52.07 4.63014 51.7199 4.28007C51.3699 3.93 50.8951 3.73333 50.4 3.73333H35.4667C34.9716 3.73333 34.4968 3.93 34.1467 4.28007C33.7967 4.63014 33.6 5.10493 33.6 5.6V18.6667Z" fill="#AD9105"/>
</g>
<defs>
<clipPath id="clip0_118_3100">
<rect width="56" height="56" fill="white"/>
</clipPath>
</defs>
</svg>
