<svg width="62" height="62" viewBox="0 0 62 62" fill="none" xmlns="http://www.w3.org/2000/svg">
<path d="M17.1791 21.0541C17.4375 21.3125 17.7389 21.4417 18.0833 21.4417C18.4277 21.4417 18.7291 21.3125 18.9875 21.0541L22.3458 17.6958C22.6041 17.4375 22.7333 17.1361 22.7333 16.7917C22.7333 16.4472 22.6041 16.1458 22.3458 15.8875L18.9875 12.5292C18.7291 12.2708 18.4277 12.1417 18.0833 12.1417C17.7389 12.1417 17.4375 12.2708 17.1791 12.5292L13.8208 15.8875C13.5625 16.1458 13.4333 16.4472 13.4333 16.7917C13.4333 17.1361 13.5625 17.4375 13.8208 17.6958L17.1791 21.0541ZM10.3333 36.1666C8.91246 36.1666 7.69571 35.6603 6.68305 34.6476C5.67038 33.635 5.16491 32.4191 5.16663 31V7.74998C5.16663 6.32915 5.67296 5.1124 6.68563 4.09973C7.6983 3.08707 8.91419 2.5816 10.3333 2.58332H51.6666C53.0875 2.58332 54.3042 3.08965 55.3169 4.10232C56.3295 5.11498 56.835 6.33087 56.8333 7.74998V31C56.8333 32.4208 56.327 33.6376 55.3143 34.6502C54.3016 35.6629 53.0857 36.1684 51.6666 36.1666H43.3354C43.5937 35.3055 43.7659 34.4444 43.852 33.5833C43.9382 32.7222 43.9382 31.8611 43.852 31H51.6666V7.74998H10.3333V31H18.1479C18.0618 31.8611 18.0618 32.7222 18.1479 33.5833C18.234 34.4444 18.4062 35.3055 18.6645 36.1666H10.3333ZM42.625 18.0833C43.7014 18.0833 44.6167 17.7062 45.371 16.9518C46.1254 16.1975 46.5017 15.283 46.5 14.2083C46.5 13.1319 46.1228 12.2166 45.3685 11.4622C44.6141 10.7079 43.6996 10.3316 42.625 10.3333C41.5486 10.3333 40.6332 10.7105 39.8789 11.4648C39.1245 12.2192 38.7482 13.1337 38.75 14.2083C38.75 15.2847 39.1271 16.2001 39.8815 16.9544C40.6358 17.7087 41.5503 18.085 42.625 18.0833ZM15.5 59.4166C14.768 59.4166 14.154 59.1686 13.658 58.6726C13.162 58.1767 12.9149 57.5635 12.9166 56.8333V53.9916C12.9166 52.4847 13.3369 51.0854 14.1773 49.7937C15.0177 48.5021 16.126 47.5333 17.502 46.8875C19.6118 45.8972 21.8076 45.1541 24.0895 44.6581C26.3715 44.1621 28.675 43.9149 31 43.9166C33.325 43.9166 35.6284 44.1646 37.9104 44.6606C40.1923 45.1567 42.3882 45.8989 44.4979 46.8875C45.8757 47.5333 46.9848 48.5021 47.8252 49.7937C48.6657 51.0854 49.085 52.4847 49.0833 53.9916V56.8333C49.0833 57.5653 48.8362 58.1792 48.3419 58.6752C47.8476 59.1712 47.2336 59.4184 46.5 59.4166H15.5ZM18.0833 54.25H43.9166V53.9916C43.9166 53.475 43.7659 53.0014 43.4646 52.5708C43.1632 52.1403 42.7757 51.8173 42.302 51.6021C40.4937 50.784 38.6423 50.1597 36.7479 49.7291C34.8534 49.2986 32.9375 49.0833 31 49.0833C29.0625 49.0833 27.1465 49.2986 25.252 49.7291C23.3576 50.1597 21.5062 50.784 19.6979 51.6021C19.2243 51.8173 18.8368 52.1403 18.5354 52.5708C18.234 53.0014 18.0833 53.475 18.0833 53.9916V54.25ZM31 41.3333C28.5027 41.3333 26.3715 40.4507 24.6062 38.6854C22.8409 36.9201 21.9583 34.7889 21.9583 32.2917C21.9583 29.7944 22.8409 27.6632 24.6062 25.8979C26.3715 24.1326 28.5027 23.25 31 23.25C33.4972 23.25 35.6284 24.1326 37.3937 25.8979C39.159 27.6632 40.0416 29.7944 40.0416 32.2917C40.0416 34.7889 39.159 36.9201 37.3937 38.6854C35.6284 40.4507 33.4972 41.3333 31 41.3333ZM31 36.1666C32.0764 36.1666 32.9917 35.7895 33.746 35.0352C34.5004 34.2808 34.8767 33.3663 34.875 32.2917C34.875 31.2153 34.4978 30.2999 33.7435 29.5456C32.9891 28.7912 32.0746 28.4149 31 28.4167C29.9236 28.4167 29.0082 28.7938 28.2539 29.5481C27.4995 30.3025 27.1232 31.217 27.125 32.2917C27.125 33.368 27.5021 34.2834 28.2565 35.0377C29.0108 35.7921 29.9253 36.1684 31 36.1666Z" fill="#3F6FBB"/>
</svg>
