<svg width="64" height="64" viewBox="0 0 64 64" fill="none" xmlns="http://www.w3.org/2000/svg">
<path d="M56.0001 26.6667C47.332 27.1694 38.9956 30.1743 32.0001 35.3174C25.0046 30.1743 16.6682 27.1694 8.00009 26.6667V34.56C6.58323 34.5628 5.22549 35.1282 4.22537 36.1318C3.22526 37.1355 2.66463 38.4952 2.66675 39.912V42.5894C2.66675 45.5467 8.00009 48.4774 8.00009 48.4774V53.8294C15.0828 54.2849 21.9133 56.6333 27.7788 60.6294C29.2598 61.6571 30.6701 62.7832 32.0001 64C33.3301 62.7832 34.7404 61.6571 36.2214 60.6294C42.0868 56.6333 48.9174 54.2849 56.0001 53.8294V47.9414C57.4169 47.9385 58.7747 47.3732 59.7748 46.3695C60.7749 45.3659 61.3355 44.0062 61.3334 42.5894V39.912C61.3355 38.4952 60.7749 37.1355 59.7748 36.1318C58.7747 35.1282 57.4169 34.5628 56.0001 34.56V26.6667ZM32.0001 57.1254C26.4694 53.0721 20.084 50.3392 13.3334 49.136V32.736C18.507 33.7782 23.4189 35.8475 27.7788 38.8214C29.2598 39.8491 30.6701 40.9752 32.0001 42.192C33.3301 40.9752 34.7404 39.8491 36.2214 38.8214C40.581 35.8466 45.493 33.7764 50.6668 32.7334V49.136C43.9162 50.3392 37.5308 53.0721 32.0001 57.1254ZM29.3334 21.3334H34.6668V24H29.3334V21.3334ZM29.3334 10.6667H34.6668V13.3334H29.3334V10.6667Z" fill="#3F6FBB"/>
<path d="M29.3332 26.6667H34.6666V29.3333H29.3332V26.6667ZM23.9999 13.3333C24.7071 13.3333 25.3854 13.0524 25.8855 12.5523C26.3856 12.0522 26.6666 11.3739 26.6666 10.6667C26.669 10.3193 26.6025 9.97488 26.4707 9.65346C26.3389 9.33204 26.1445 9.04002 25.8989 8.79438C25.6532 8.54874 25.3612 8.35437 25.0398 8.22258C24.7184 8.09079 24.3739 8.0242 24.0266 8.02668C23.6781 8.02493 23.3327 8.09182 23.0102 8.22355C22.6876 8.35527 22.3941 8.54925 22.1465 8.79439C21.6464 9.28949 21.3634 9.96297 21.3599 10.6667C21.3564 11.3704 21.6325 12.0467 22.1276 12.5468C22.6227 13.0469 23.2962 13.3298 23.9999 13.3333Z" fill="#3F6FBB"/>
<path d="M39.9999 13.3333C41.4727 13.3333 42.6666 12.1394 42.6666 10.6667C42.6666 9.19391 41.4727 8 39.9999 8C38.5272 8 37.3333 9.19391 37.3333 10.6667C37.3333 12.1394 38.5272 13.3333 39.9999 13.3333Z" fill="#3F6FBB"/>
<path d="M42.6666 21.3333H21.3333C19.2122 21.3312 17.1786 20.4877 15.6787 18.9878C14.1789 17.488 13.3354 15.4544 13.3333 13.3333V8C13.3354 5.87892 14.1789 3.84532 15.6787 2.34548C17.1786 0.845653 19.2122 0.00211791 21.3333 0L42.6666 0C44.7877 0.00211791 46.8213 0.845653 48.3211 2.34548C49.8209 3.84532 50.6645 5.87892 50.6666 8V13.3333C50.6645 15.4544 49.8209 17.488 48.3211 18.9878C46.8213 20.4877 44.7877 21.3312 42.6666 21.3333ZM21.3333 5.33333C20.6262 5.33404 19.9484 5.61522 19.4484 6.11516C18.9485 6.61511 18.6673 7.29297 18.6666 8V13.3333C18.6673 14.0404 18.9485 14.7182 19.4484 15.2182C19.9484 15.7181 20.6262 15.9993 21.3333 16H42.6666C43.3736 15.9993 44.0515 15.7181 44.5514 15.2182C45.0514 14.7182 45.3325 14.0404 45.3333 13.3333V8C45.3325 7.29297 45.0514 6.61511 44.5514 6.11516C44.0515 5.61522 43.3736 5.33404 42.6666 5.33333H21.3333Z" fill="#3F6FBB"/>
</svg>
