<svg width="56" height="56" viewBox="0 0 56 56" fill="none" xmlns="http://www.w3.org/2000/svg">
<path d="M28 3.5L7 10.5V31.5C7 43.0992 16.4008 52.5 28 52.5C39.5992 52.5 49 43.0992 49 31.5V10.5L28 3.5ZM45.0625 31.5C45.0625 40.9227 37.4227 48.5625 28 48.5625C18.5773 48.5625 10.9375 40.9227 10.9375 31.5V13.4531L28 7.4375L45.0625 13.4531V31.5Z" fill="#113775"/>
<path d="M20.6937 25.982C20.5113 25.7987 20.2944 25.6533 20.0555 25.554C19.8167 25.4548 19.5606 25.4037 19.3019 25.4037C19.0433 25.4037 18.7872 25.4548 18.5484 25.554C18.3095 25.6533 18.0926 25.7987 17.9101 25.982C17.7268 26.1645 17.5814 26.3814 17.4821 26.6202C17.3829 26.8591 17.3318 27.1152 17.3318 27.3738C17.3318 27.6325 17.3829 27.8886 17.4821 28.1274C17.5814 28.3663 17.7268 28.5832 17.9101 28.7656L24.9867 35.8422L25.1016 35.957C25.2742 36.13 25.4792 36.2672 25.7048 36.3608C25.9305 36.4544 26.1725 36.5025 26.4168 36.5025C26.6611 36.5025 26.903 36.4544 27.1287 36.3608C27.3544 36.2672 27.5594 36.13 27.732 35.957L39.9547 23.7344C40.1276 23.5618 40.2648 23.3568 40.3584 23.1311C40.452 22.9054 40.5002 22.6635 40.5002 22.4191C40.5002 22.1748 40.452 21.9329 40.3584 21.7072C40.2648 21.4815 40.1276 21.2765 39.9547 21.1039L39.8016 20.9508C39.629 20.7779 39.4239 20.6407 39.1983 20.5471C38.9726 20.4535 38.7306 20.4053 38.4863 20.4053C38.242 20.4053 38.0001 20.4535 37.7744 20.5471C37.5487 20.6407 37.3437 20.7779 37.1711 20.9508L26.4141 31.7023L20.6937 25.982Z" fill="#113775"/>
</svg>
