<svg width="48" height="48" viewBox="0 0 48 48" fill="none" xmlns="http://www.w3.org/2000/svg">
<g clip-path="url(#clip0_118_3206)">
<path d="M24 4C35.046 4 44 12.954 44 24C44 35.046 35.046 44 24 44C12.954 44 4 35.046 4 24C4 12.954 12.954 4 24 4ZM24 8C19.7565 8 15.6869 9.68571 12.6863 12.6863C9.68571 15.6869 8 19.7565 8 24C8 28.2435 9.68571 32.3131 12.6863 35.3137C15.6869 38.3143 19.7565 40 24 40C28.2435 40 32.3131 38.3143 35.3137 35.3137C38.3143 32.3131 40 28.2435 40 24C40 19.7565 38.3143 15.6869 35.3137 12.6863C32.3131 9.68571 28.2435 8 24 8ZM24 12C24.4899 12.0001 24.9627 12.1799 25.3287 12.5054C25.6948 12.8309 25.9287 13.2795 25.986 13.766L26 14V23.172L31.414 28.586C31.7727 28.9459 31.9809 29.4289 31.9965 29.9368C32.012 30.4447 31.8336 30.9394 31.4975 31.3206C31.1614 31.7017 30.6929 31.9406 30.1871 31.9888C29.6812 32.037 29.176 31.8908 28.774 31.58L28.586 31.414L22.586 25.414C22.2752 25.1029 22.0755 24.698 22.018 24.262L22 24V14C22 13.4696 22.2107 12.9609 22.5858 12.5858C22.9609 12.2107 23.4696 12 24 12Z" fill="#AD9105"/>
</g>
<defs>
<clipPath id="clip0_118_3206">
<rect width="48" height="48" fill="white"/>
</clipPath>
</defs>
</svg>
