<svg width="24" height="24" viewBox="0 0 24 24" fill="none" xmlns="http://www.w3.org/2000/svg">
<path d="M13.31 20.3999C11.9877 20.6065 10.6353 20.4979 9.36296 20.0829C8.09057 19.668 6.93413 18.9585 5.98779 18.0122C5.04144 17.0658 4.33193 15.9094 3.91701 14.637C3.50209 13.3646 3.39348 12.0122 3.60004 10.6899C3.07877 9.69842 2.88829 8.5662 3.05644 7.45873C3.2246 6.35125 3.74257 5.3266 4.53464 4.53452C5.32672 3.74244 6.35138 3.22448 7.45885 3.05632C8.56632 2.88817 9.69855 3.07865 10.69 3.59991C12.0123 3.39336 13.3647 3.50197 14.6371 3.91689C15.9095 4.33181 17.0659 5.04132 18.0123 5.98766C18.9586 6.93401 19.6681 8.09044 20.0831 9.36284C20.498 10.6352 20.6066 11.9876 20.4 13.3099C20.9213 14.3014 21.1118 15.4336 20.9436 16.5411C20.7755 17.6486 20.2575 18.6732 19.4654 19.4653C18.6734 20.2574 17.6487 20.7754 16.5412 20.9435C15.4337 21.1117 14.3015 20.9212 13.31 20.3999ZM12.052 17.1559H12.012C14.884 17.1559 16.315 15.7699 16.315 13.9129C16.315 12.7149 15.764 11.4419 13.589 10.9549L11.606 10.5149C10.851 10.3429 9.98404 10.1149 9.98404 9.39991C9.98404 8.68491 10.604 8.18691 11.708 8.18691C13.938 8.18691 13.735 9.71491 14.839 9.71491C15.415 9.71491 15.932 9.37291 15.932 8.78491C15.932 7.41491 13.735 6.38491 11.876 6.38491C9.85504 6.38491 7.70304 7.24391 7.70304 9.52891C7.70304 10.6269 8.09703 11.7989 10.263 12.3419L12.952 13.0129C13.768 13.2149 13.97 13.6719 13.97 14.0849C13.97 14.7719 13.286 15.4429 12.052 15.4429C9.63504 15.4429 9.97404 13.5859 8.67804 13.5859C8.09804 13.5859 7.67504 13.9839 7.67504 14.5569C7.67504 15.6709 9.02704 17.1549 12.052 17.1549V17.1559Z" fill="#3F6FBB"/>
</svg>
